/* XPM */
static const char * const main_icon_xpm[] = {
/* columns rows colors chars-per-pixel */
"32 32 214 2 ",
"   c #03032DAEBF3F",
".  c #015732DDBDBD",
"X  c #00003A3ABEBE",
"o  c #2D2D4ACB9E9E",
"O  c #30304B4B9E9E",
"+  c #1B1B5CDDB535",
"@  c #00004040BFBF",
"#  c #2B92588BA3A3",
"$  c #28A95BDCB3B3",
"%  c #35F65595B9F9",
"&  c #3CBD5959BC7C",
"*  c #2D2D4F4FA1A1",
"=  c #1A1A65BBB862",
"-  c #1A5A74F5BDBD",
";  c #2C936801A774",
":  c #2C6C7C3CAEAE",
">  c #2C2C73C9AD57",
",  c #373778F9B6B6",
"<  c #4A1743AA94C7",
"1  c #49CA45C69414",
"2  c #5C5C4D4D96EC",
"3  c #525249499595",
"4  c #6A6A54D59A9A",
"5  c #78F95CDD9D9D",
"6  c #4A4A5600AC01",
"7  c #489E6A6AB7B7",
"8  c #54D565E6BB3B",
"9  c #4A4A7474BEBE",
"0  c #6CC270C6B2B2",
"q  c #00563D93C398",
"w  c #008135B6C141",
"e  c #001543D9C419",
"r  c #095F41ECC5C5",
"t  c #01014CCDC6E0",
"y  c #01AC4BF6C91E",
"u  c #14954949C545",
"i  c #00005353C7C7",
"p  c #018C5469CB00",
"a  c #0C8D5353CB0A",
"s  c #00285D35CCB8",
"d  c #058654D5C7C7",
"f  c #189959DACCCC",
"g  c #00005DDED0D0",
"h  c #2BD65959CC21",
"j  c #33335C5CCECE",
"k  c #20204D4DC3C3",
"l  c #00406323CE4E",
"z  c #000068A8CF8F",
"x  c #000063B9D17B",
"c  c #00006CDAD276",
"v  c #0A0A6F6FD4D4",
"b  c #00007515D4B4",
"n  c #00567B3BD696",
"m  c #00007D7DD959",
"M  c #3D3D68E9CFCF",
"N  c #3BFC69A9D151",
"B  c #378D731DD3D3",
"V  c #27D26C16D27C",
"C  c #4B4B6262C141",
"Z  c #59DA6B6BC242",
"A  c #41EC6C16D1D1",
"S  c #4C4C6F6FD2D2",
"D  c #4D2272C8D352",
"F  c #4E4E7D7DD959",
"G  c #52EC75A8D53B",
"H  c #5B127CC5D68D",
"J  c #59DA7A7AD858",
"K  c #6BEC76F7C646",
"L  c #67BD7C7CD82D",
"P  c #62626F6FC3C3",
"I  c #838363639D9D",
"U  c #969673739E9E",
"Y  c #8C366A14A2A2",
"T  c #93936D17A9FF",
"R  c #9B9B6969A6A6",
"E  c #9A9A7373ABEB",
"W  c #96967171A9A9",
"Q  c #92927DFEB838",
"!  c #A2A26DEEA323",
"~  c #A40A7B48AC79",
"^  c #1A1A8686BFBF",
"/  c #29908787BA20",
"(  c #28A98A8AB7B7",
")  c #1BC689DFC4C4",
"_  c #1A8199CCC895",
"`  c #00008585DABA",
"'  c #01578BE1DC6A",
"]  c #00008181D6D6",
"[  c #1A9B8888DB5B",
"{  c #002B92BDDE33",
"}  c #06069999DFDF",
"|  c #23239B9BC343",
" . c #31B28D8DDB5B",
".. c #1A70A0A0C81D",
"X. c #2828A6FCC51A",
"o. c #36E1B761C7C7",
"O. c #2828B3B3C7C7",
"+. c #000099EFE1E1",
"@. c #13139797E0E0",
"#. c #0040A5A5E3A3",
"$. c #0056AC56E6E6",
"%. c #0000BC89EB84",
"&. c #00ABB308E8E8",
"*. c #1B9CB4B4E969",
"=. c #3131A5A5E4E4",
"-. c #4A4A8505D9D9",
";. c #5B1B85C5DA9A",
":. c #78788080C8C8",
">. c #6B908416D9FE",
",. c #660686E6DA9A",
"<. c #74B48C4CDCDC",
"1. c #7A7A8E38DCDC",
"2. c #71718585DC86",
"3. c #6DEE9191DEDE",
"4. c #79AC9595DDDD",
"5. c #50A6BB65C9C9",
"6. c #4343BEBEC8C8",
"7. c #68689999E0E0",
"8. c #7B7BA1A1E2E2",
"9. c #0000C484ED2C",
"0. c #00CECACAEEBB",
"q. c #00ABDA2FF59F",
"w. c #0359D429F348",
"e. c #1268DEDEF59F",
"r. c #1515D757F1F1",
"t. c #07B2CC21EFEF",
"y. c #123DE5E5F6A0",
"u. c #4ACBC747CBCB",
"i. c #51D2C403CC0B",
"p. c #53D4CACACDCD",
"a. c #ACAC8303AFAF",
"s. c #B7378808AC2C",
"d. c #B60B8AE0B55F",
"f. c #B9B99696BA3A",
"g. c #C4C48D0DADAD",
"h. c #C6C69919B939",
"j. c #D7D7A34DB862",
"k. c #E4E4B232BD3D",
"l. c #F7F7C0C0BFBF",
"z. c #84048A8ACC4C",
"x. c #9E378AF1C42A",
"c. c #99198606C5C5",
"v. c #87208ABDDBA8",
"b. c #8C0C9292DF1E",
"n. c #84DA98EEDE88",
"m. c #85DB94EADEDE",
"M. c #933D953FD52A",
"N. c #A24C8E38C46E",
"B. c #A7A78686C1C1",
"V. c #A4A49292C61B",
"C. c #ACAC9898C949",
"Z. c #B50A9C46C771",
"A. c #A2A29D9DD0D0",
"S. c #BB10A5A5CC21",
"D. c #B030AD2DD5D5",
"F. c #8630986DE20C",
"G. c #97ED9BF1E262",
"H. c #8CF3A309E349",
"J. c #8A8AAA54E63B",
"K. c #9D2FAD3FE653",
"L. c #9656A868E726",
"P. c #9D9DB55FE892",
"I. c #A331A4C1E371",
"U. c #A5FBAD02E5E5",
"Y. c #AB2BACACE565",
"T. c #A565B232E726",
"R. c #AE03B45EEA94",
"E. c #A916B901EAA1",
"W. c #B35DB7B7EA3F",
"Q. c #B4E7BB88EAEA",
"!. c #BB21BE57EA83",
"~. c #B5B5BDBDE6E6",
"^. c #D4D4A9A9C2C2",
"/. c #D3D3B434CECE",
"(. c #CA1FB8B8D5D5",
"). c #CA74B05ACF24",
"_. c #E892BB10C91E",
"`. c #BC91C297ED2C",
"'. c #B7F7C545ED6D",
"]. c #BCBCC949F0F0",
"[. c #AFAFC3C3EEEE",
"{. c #DEDEC5C5D6D6",
"}. c #E9E9CDCDD7D7",
"|. c #F777D454D8D8",
" X c #C2C2C592EC52",
".X c #C45DCA97EDBA",
"XX c #CA4ACACAED6D",
"oX c #CCFFD19EEEBB",
"OX c #D656D8D8EF6F",
"+X c #C6C6CC76F1F1",
"@X c #C9C9CFCFF2F2",
"#X c #CD7ED40EF2B7",
"$X c #D352D5AAF2C7",
"%X c #D3FEDCB1F474",
"&X c #DD5DDEB3F39D",
"*X c #D1D1DBDBF8F8",
"=X c #E161DFDFF575",
"-X c #D781E2E2F59F",
";X c #DCC8E481F66C",
":X c #DDDDE881F8C5",
">X c #E31BE38DF4D7",
",X c #E44AEB84F729",
"<X c #EC41ED17F74C",
"1X c #E690EDEDF9F9",
"2X c #EB2AEDEDF9F9",
"3X c #E8E8E6E6F7F7",
"4X c #F1F1EF6FF979",
"5X c #EC96F272FA79",
"6X c #EDEDF171F6F6",
"7X c #F43AF4F4FB08",
"8X c #F94EF74CFCA6",
"9X c #FD47FD7BFC53",
"0X c #F777F777F8B8",
"qX c None",
/* pixels */
"9X9X9X9X9X9X9X9X9X9X9X9X9X8X0X7X7X9X9X9X9X9X9X9X9X9X9X9X9X9X9XqX",
"9X9X9X9X9X9X9X9X9X9X4X$XY.I.I.I.I.M.I. X3X8X9X9X9X9X9X9X9X9X9XqX",
"9X9X9X9X9X9X9X9X2X`.M.W.$X&X>X>X>X-X$XW.v.I.OX7X9X9X9X8X9X9X9XqX",
"9X9X9X9X9X9X6X XU..X7X0X2X2X2X1X2X5X5X7X0XXXb.U.&X9X9X9X9X9X9XqX",
"9X9X9X9X9X4XI.!.3X2X,X;X-X&X-X-X-X;X:X:X1X5X5X'.b.$X0X9X9X9X9XqX",
"9X9X9X8X>XG.%X<X;X-X*X*X#X#X#X#X#X#X#X$X*X-X:X1X&Xv.XX0X9X9X9XqX",
"9X9X8X>XI.#X,X%X#X@X+X`. X`.`.!.`.'.`..X@X#X#X-X,X>Xv.XX9X9X9XqX",
"9X9X8XU.`.:X$X+X].Q.W.R.R.R.T.T.T.R.W.R.!.`..X#X$X:XoXb.>X9X9XqX",
"9X9X/.c.}.).S.S.Z.C.V.V.x.x.x.x.x.N.N.V.C.C.S.S.).(.{.S.a.|.9XqX",
"9X9XR j.h.f.d.~ ~ ~ ~ E T T Y T T T E E E ~ a.d.d.h.j.k.T j.}.qX",
"9X!.L.OXQ.P.L.G.F.1.2.2.>.>.L L ,.>.>.<.4.m.F.L.K.E.'.-X`.G.0XqX",
"6Xb.'.'.K.H.F.1.>.L L J G D D S D G G H ,.>.<.4.H.L.E.].>XL 3XqX",
"=Xv.].P.H.4.1.>.H G S N N N N N M M A S F J ,.3.4.J.P.P.;XF.XXqX",
"{.c.(.M.z.:.K P Z C C 6 % j % % % & & 7 8 9 Z K :.:.M.A.(.A.C.qX",
"g.R g.U U I 5 4 4 2 2 3 < < < < < 1 1 3 2 4 4 5 5 Y W a.d.s.! qX",
"W.F.[.4.3.,.F N V f a a u y y d p p a p a f f B -.3.8.J.E.T.F.qX",
"W.1.P.H M h r e q e y p p p g p p p p i t e e q w r j ;.J.2.v.qX",
"`.>.L     w q e t i i p s s g g g l s s s i i t e X w . + j F.qX",
"oX2.J w X X e y i p s x c c c c c c c z l s s i t e q w u h K.qX",
";X2.;.r q t i i x x c c b b b m b n b b c c x s s t y q u j .XqX",
"4Xb.;.V @ i i l z c b m m ` ` ` ` ` ] ] n b c x l p y y a D >XqX",
"0X XD F t i l z c b m ` ' ' +.' { { ' ' ] ] n v c g p p a K.7XqX",
"9Xk.Y 8 6 o # # # ; ; > : : : : / ( > : > ; ; # # * * O 2 j.9XqX",
"9X|./.6 , ; + = - V ) ) _ _ ...._ _ _ ^ ) ^ - - = + + $ V.}.9XqX",
"9X9X0XI.B  .b n ' +.$.&.%.9.0.0.0.9.9.%.&.#.{ ' ` b b 3.;X9X9XqX",
"9X9X0X>X4.[ [ ' ' #.&.%.0.w.q.q.q.q.0.9.%.$.+.' ` n ;..X0X9X9XqX",
"9X9X9X0X&XF.[ @.@.$.%.0.r.e.e.y.y.y.y.w.9.&.#.+.' -.XX7X9X9X9XqX",
"9X9X9X9X9X_.~ 7 / / | o.5.5.i.i.i.i.i.o.X.( ( , Q ^.9X9X9X9X9XqX",
"9X9X9X9X9X9X{.j.Q 7 ( X.o.5.u.p.p.u.o.O..., 0 f._.9X9X9X9X9X9XqX",
"9X9X9X9X9X9X0X6X>X`.4. .*.t.e.y.y.r.t.=.3.E.%X6X9X9X9X9X9X9X9XqX",
"9X9X9X9X9X9X9X9X9X0X3XOX~.I.L.H.J.U.!.$X>XqXqXqXqXqXqXqXqXqXqXqX",
"9X9X9X9X9X9X9X9X0X9X9X0X0X4X4X4X4X4X8X0XqXqXqXqXqXqXqXqXqXqXqXqX"
};
