/* XPM */
static const char *const add_xpm[] = {
/* columns rows colors chars-per-pixel */
"16 16 8 1 ",
"  c #287420",
". c none",
"X c #35AB01",
"o c #35AD01",
"O c #389531",
"+ c #41BC00",
"@ c #41A330",
"# c #47C301",
/* pixels */
"................",
"......      ....",
"...... OOOO ....",
"...... @@@@ ....",
"...... oooo ....",
"..     XXXX     ",
".. O@oX++++Xo@O ",
".. O@oX+##+Xo@O ",
".. O@oX+##+Xo@O ",
".. O@oX++++Xo@O ",
"..     XXXX     ",
"...... oooo ....",
"...... @@@@ ....",
"...... OOOO ....",
"......      ....",
"................"
};
