/* XPM */
static const char *const new_xpm[] = {
/* columns rows colors chars-per-pixel */
"16 16 46 1 ",
"  c none",
". c #46558E",
"X c #7689D1",
"o c #7990E6",
"O c #7A91E6",
"+ c #8294C5",
"@ c #8294C6",
"# c #8494CB",
"$ c #8C9FDF",
"% c #91A1CF",
"& c #9BA9D3",
"* c #9CAAD3",
"= c #9EADD3",
"- c #A0AED4",
"; c #A3B0D5",
": c #AAB9DA",
"> c #8A9EE0",
", c #8C9FE0",
"< c #8DA6E2",
"1 c #8CA2EA",
"2 c #8EA3EA",
"3 c #92A4E9",
"4 c #96ADEE",
"5 c #9DB2EF",
"6 c #A8BFED",
"7 c #A0B8F2",
"8 c #A5BCF1",
"9 c #A8BAF1",
"0 c #AFC4EB",
"q c #ADC2EC",
"w c #ACC0EE",
"e c #B0C6ED",
"r c #B6C8F2",
"t c #BBD1F3",
"y c #C2D5F7",
"u c #C5D7F7",
"i c #C6D8F8",
"p c #C7DAF9",
"a c #C2DDFF",
"s c #C9DBF9",
"d c #CEDEFA",
"f c #CFDFFB",
"g c #DFEAFD",
"h c #E8EFFD",
"j c #E5F0FB",
"k c #E6F4FF",
/* pixels */
"   tyuuisi8     ",
"   t      5j    ",
"   t      1fk   ",
"   e      O9fgj ",
"   0      3O147r",
"   w           t",
"   6  aaaaaa   t",
"   w           t",
"   q  aaaaaaa  0",
"   >           0",
"   <  aaaaaat  0",
"   <           w",
"   X  aaaaaaa  e",
"   X           w",
"   X           w",
"   .##+X%&*--;:<"
};
