/* XPM */
static const char *const new_xpm[] = {
/* columns rows colors chars-per-pixel */
"16 16 44 1 ",
"  c none",
". c #46558E",
"X c #7689D1",
"o c #7990E6",
"O c #7A91E6",
"+ c #8294C5",
"@ c #8294C6",
"# c #8494CB",
"$ c #8C9FDF",
"% c #91A1CF",
"& c #9BA9D3",
"* c #9CAAD3",
"= c #9EADD3",
"- c #A0AED4",
"; c #A3B0D5",
": c #AAB9DA",
"> c #8A9EE0",
", c #8C9FE0",
"< c #8DA6E2",
"1 c #8EA3EA",
"2 c #92A4E9",
"3 c #96ADEE",
"4 c #9DB2EF",
"5 c #A8BFED",
"6 c #A0B8F2",
"7 c #A5BCF1",
"8 c #A8BAF1",
"9 c #AFC4EB",
"0 c #ADC2EC",
"q c #ACC0EE",
"w c #B0C6ED",
"e c #B6C8F2",
"r c #BBD1F3",
"t c #C2D5F7",
"y c #C5D7F7",
"u c #C6D8F8",
"i c #C7DAF9",
"p c #C2DDFF",
"a c #C9DBF9",
"s c #CEDEFA",
"d c #CFDFFB",
"f c #DFEAFD",
"g c #E5F0FB",
"h c #E6F4FF",
/* pixels */
"   rtyuau7      ",
"   r     4sh    ",
"   w     O8dfg  ",
"   9     2O136e ",
"   q          r ",
"   5  ppppp   r ",
"   q          r ",
"   q  pppppp  w ",
"   $          9 ",
"   <  pppppp  0 ",
"   $          q ",
"   X  pppppp  q ",
"   X          q ",
"   X          q ",
"   .#@@%&*==;:< ",
"                "
};
