/* XPM */
static const char *const open_xpm[] = {
/* columns rows colors chars-per-pixel */
"16 16 27 1 ",
"  c none",
". c #F3A707",
"X c #FCB815",
"o c #FFD02D",
"O c #FFD231",
"+ c #FED638",
"@ c #FFD93D",
"# c #FFDF49",
"$ c #FBDB57",
"% c #F6DD5A",
"& c #FFE04C",
"* c #FFE55C",
"= c #FFE560",
"- c #E7C39C",
"; c #E5DA96",
": c #E9E492",
"> c #EAE598",
", c #FFEE99",
"< c #EEEBA0",
"1 c #FEEFA6",
"2 c #F5ECAB",
"3 c #F6FCB8",
"4 c #AAB4E1",
"5 c #E6EEC2",
"6 c #EEF5CA",
"7 c #F4F8CE",
"8 c #E9EDF8",
/* pixels */
"                ",
"       4884     ",
"   ---488884    ",
"  -1148888884   ",
" -<34888888884  ",
" -1488888888884 ",
" -488888888884X ",
"-----------843. ",
"-1,,277665;-11. ",
"-=***<33:%$-11. ",
" -&&#&%>%###-1. ",
" -@@@@++oooo-1. ",
"  -Oooooooooo-. ",
"  -oooooooooo-. ",
"   ............ ",
"                "
};
