/* XPM */
static const char *const play_xpm[] = {
/* columns rows colors chars-per-pixel */
"16 16 127 2 ",
"   c none",
".  c #1D5CBD",
"X  c #1F5EBD",
"o  c #2056A5",
"O  c #2F5DA5",
"+  c #2258A9",
"@  c #265DAE",
"#  c #2B5FAD",
"$  c #205EBD",
"%  c #215FBD",
"&  c #3262A8",
"*  c #3D6AAD",
"=  c #2760B6",
"-  c #2B62B0",
";  c #2F64B2",
":  c #2A62B4",
">  c #2A62B7",
",  c #2460BD",
"<  c #2662BD",
"1  c #2762BD",
"2  c #2863BA",
"3  c #2D65B9",
"4  c #2865BD",
"5  c #3266B5",
"6  c #3366B5",
"7  c #3469B9",
"8  c #366CBB",
"9  c #3D71BE",
"0  c #6C7E9B",
"q  c #4066A3",
"w  c #446CAA",
"e  c #466EAB",
"r  c #5175A8",
"t  c #5378AE",
"y  c #406FB8",
"u  c #4874B2",
"i  c #4273BB",
"p  c #4F79BA",
"a  c #5378B0",
"s  c #537EBE",
"d  c #537FBE",
"f  c #2A67C4",
"g  c #2867C7",
"h  c #2A69C7",
"j  c #2867C8",
"k  c #2B6AC8",
"l  c #346EC5",
"z  c #3D73C2",
"x  c #3571C9",
"c  c #3675D2",
"v  c #3675D3",
"b  c #3B77D3",
"n  c #4374C0",
"m  c #4474C0",
"M  c #477BCB",
"N  c #4078CE",
"B  c #427CD5",
"V  c #6980A3",
"C  c #6E81A2",
"Z  c #6981A6",
"A  c #6983A8",
"S  c #6B85AB",
"D  c #6B86AF",
"F  c #6081B3",
"G  c #668BBF",
"H  c #5C83C0",
"J  c #4A82D6",
"K  c #4482DC",
"L  c #4482DD",
"P  c #4783DD",
"I  c #4D86DD",
"U  c #5183D0",
"Y  c #578AD9",
"T  c #548CDC",
"R  c #6389C2",
"E  c #668CC5",
"W  c #698DC7",
"Q  c #6A8FC7",
"!  c #6C90C5",
"~  c #6C90C8",
"^  c #7593C4",
"/  c #548DE5",
"(  c #8093B0",
")  c #8A9EBB",
"_  c #86A0C9",
"`  c #8DA6CD",
"'  c #8CA6CE",
"]  c #9AA8C0",
"[  c #9CAECB",
"{  c #9BB0CE",
"}  c #9DB2CE",
"|  c #9FB2CE",
" . c #97AFD3",
".. c #9BB2D5",
"X. c #AFC0D9",
"o. c #B6C5DC",
"O. c #CAD2DF",
"+. c #CAD4E0",
"@. c #CAD4E2",
"#. c #CCD4E3",
"$. c #CCD5E3",
"%. c #CAD6EA",
"&. c #CED9EA",
"*. c #D1D8E2",
"=. c #D5DDED",
"-. c #D8DFE9",
";. c #D9E0EA",
":. c #DCE3EE",
">. c #DFE6EF",
",. c #DFE6F1",
"<. c #DFE6F2",
"1. c #DFE7F2",
"2. c #E6E8ED",
"3. c #E7E8ED",
"4. c #E7EAED",
"5. c #E6E8EE",
"6. c #E8EAEE",
"7. c #E0E7F1",
"8. c #E0E7F2",
"9. c #E0E7F4",
"0. c #E1E8F2",
"q. c #E3E8F2",
"w. c #E4EAF2",
"e. c #E6EBF4",
"r. c #E7EBF4",
"t. c #EBEEF2",
"y. c #E8EDF5",
/* pixels */
"  >.t.                          ",
">.r ) ;.t.                      ",
"w.t | [ ] ;.                    ",
"q.a X.o...[ >.y.                ",
"q.e ' .. .' ` _ =.e.            ",
"1.& H E W ~ W R ! ^ &.e.        ",
"1.o : @ 3 8 z m m i s G %.q.    ",
"1.+ 2 X . $ $ $ < < 2 : 9 F q.  ",
"7.@ l h j j j g h f 4 # * C 3.  ",
"7.- b b v v v v x 7 w V O.3.    ",
"7.5 J P L L B z u Z @.4.        ",
">.5 T / I M p A @.2.            ",
"7.6 Y U s S #.4.                ",
"1.O * D #.4.                    ",
"3.0 ( *.                        ",
"  2.t.                          "
};
