/* XPM */
static const char *const save_xpm[] = {
/* columns rows colors chars-per-pixel */
"16 16 38 1 ",
"  c gray40",
". c gray48",
"X c #7E7E7E",
"o c none",
"O c #00B100",
"+ c #00B500",
"@ c #00B900",
"# c #00BD00",
"$ c #00C100",
"% c #00C500",
"& c #00C800",
"* c #00C900",
"= c #00CD00",
"- c #00D100",
"; c #00D500",
": c #00D900",
"> c #00DD00",
", c #00E100",
"< c #00E500",
"1 c #00E900",
"2 c #838383",
"3 c #888888",
"4 c #8E8E8E",
"5 c gray58",
"6 c #9B9B9B",
"7 c #AAAAAA",
"8 c #AFAFAF",
"9 c gray71",
"0 c #BCBCBC",
"q c gray76",
"w c gray83",
"e c #D8D8D8",
"r c gainsboro",
"t c #DFDFDF",
"y c #E6E6E6",
"u c #ECECEC",
"i c #EFEFEF",
"p c #F8F8F8",
/* pixels */
"oo1111111111111o",
"oo<<qppppp,,pq11",
"oo,,0uuuuu,,u0<<",
"oo>>9ttttt,,t9,,",
"oo::8eeeeeeee8>>",
"oo;;7777777777::",
"oo--&&&&&&&&&&;;",
"oo==&&&&&&&&&&--",
"oo&&5666666665&=",
"oo%%4pppppppp5&&",
"oo%#3iuiuiiiu3%%",
"oo##2y      y2%%",
"oo@@XtetrrrtrX##",
"oo++.w      w.@@",
"ooOOOOOOOOOOOO++",
"oooooooooooooooo"
};
