/* XPM */
static const char *const effects_xpm[] = {
/* columns rows colors chars-per-pixel */
"16 16 119 2 ",
"   c #B00000",
".  c none",
"X  c #F01F08",
"o  c #EF270F",
"O  c #EF2B14",
"+  c #EF2D19",
"@  c #EE351F",
"#  c #EF3520",
"$  c #EF3B27",
"%  c #E53E2E",
"&  c #EE3C28",
"*  c #EE402C",
"=  c #E54031",
"-  c #E64332",
";  c #E64535",
":  c #EC4530",
">  c #EE4530",
",  c #ED4834",
"<  c #ED4A36",
"1  c #EE4B37",
"2  c #E64738",
"3  c #E64939",
"4  c #E64B3C",
"5  c #E64D3C",
"6  c #E64D3D",
"7  c #E64D3E",
"8  c #ED4D39",
"9  c #F44B3A",
"0  c #EC5440",
"q  c #ED5946",
"w  c #E75D4E",
"e  c #EC5E4C",
"r  c #F35341",
"t  c #EC614F",
"y  c #EC6351",
"u  c #189818",
"i  c #189918",
"p  c #199918",
"a  c #1A9A19",
"s  c #1A9B19",
"d  c #1B9B19",
"f  c #209A1E",
"g  c #219B1F",
"h  c #219C1E",
"j  c #219E1F",
"k  c #229B20",
"l  c #239B21",
"z  c #219C20",
"x  c #239D21",
"c  c #239C22",
"v  c #239C23",
"b  c #249D21",
"n  c #249C22",
"m  c #269D23",
"M  c #259D24",
"N  c #1FC611",
"B  c #1FC612",
"V  c #20C214",
"C  c #23CA14",
"Z  c #23CB15",
"A  c #2AC31A",
"S  c #26C91B",
"D  c #27CC1D",
"F  c #28D415",
"G  c #29D515",
"H  c #30C721",
"J  c #30CE23",
"K  c #34CB27",
"L  c #30CC25",
"P  c #38CD2B",
"I  c #3ACD2A",
"U  c #3ACC2B",
"Y  c #3DCB2F",
"T  c #39CC2D",
"R  c #3DCD2F",
"E  c #35D623",
"W  c #38D227",
"Q  c #3BD62B",
"!  c #3ED02C",
"~  c #37DB29",
"^  c #38DC2A",
"/  c #41D72D",
"(  c #43C339",
")  c #45C13A",
"_  c #42D233",
"`  c #46D732",
"'  c #46D237",
"]  c #46D734",
"[  c #47D735",
"{  c #48D23A",
"}  c #49D23B",
"|  c #0000B0",
" . c #2E3EDC",
".. c #081FF0",
"X. c #142BEF",
"o. c #192DEF",
"O. c #1F35EE",
"+. c #2035EF",
"@. c #273BEF",
"#. c #283CEE",
"$. c #2C40EE",
"%. c #3243E6",
"&. c #3847E6",
"*. c #3C4BE6",
"=. c #3D4BE6",
"-. c #3045EC",
";. c #3045EE",
":. c #3448ED",
">. c #364AED",
",. c #374BEE",
"<. c #394DED",
"1. c #3A4BF4",
"2. c #4E5DE7",
"3. c #4054EC",
"4. c #4659ED",
"5. c #4C5EEC",
"6. c #4153F3",
"7. c #4F61EC",
"8. c #5163EC",
/* pixels */
". . . . . . . . . . . . . . . . ",
".       . . a j a . . | | | . . ",
"  r 9 w   u R ~ ( u | 6.1.2.| . ",
"  O X %   g Z G Z j | X... .| . ",
"  & + -   g B G V d | #.o.%.| . ",
"  8 $ 2   c W E D c | <.@.&.| . ",
"  q > 4   M _ / I b | 4.$.=.| . ",
"  t < 6   M { ] U b | 7.<.=.| . ",
"  y < 6   M { [ U v | 8.,.*.| . ",
"  e < 6   m ' ` I M | 5.:.*.| . ",
"  0 * 3   b R Q K c | 3.$.&.| . ",
"  > # ;   l S A L c | -.+.%.| . ",
"  @ o -   j B H J c | O... .| . ",
"  r 9 w   u Y ~ ) a | 6.1.2.| . ",
".       . . a j s . . | | | . . ",
". . . . . . . . . . . . . . . . "
};
