/* XPM */
static const char *const pointer_xpm[] = {
/* columns rows colors chars-per-pixel */
"16 16 3 1 ",
"  c black",
". c none",
"X c white",
/* pixels */
"....  ..........",
".... X .........",
".... XX ........",
".... XXX .......",
".... XXXX ......",
".... XXXXX .....",
".... XXXXXX ....",
".... XXXXXXX ...",
".... XXXXX    ..",
".... XXXXX .....",
".... X  XX .....",
"....  .. XX ....",
".... ... XX ....",
"......... XX ...",
"......... XX ...",
"..........  ...."
};
