/* XPM */
static const char *const write_xpm[] = {
/* columns rows colors chars-per-pixel */
"16 16 13 1 ",
"  c black",
". c none",
"X c #D42A00",
"o c #AA5500",
"O c #55AA00",
"+ c #2AD400",
"@ c green",
"# c #00D42A",
"$ c #00AA55",
"% c #808000",
"& c #0055AA",
"* c #002AD4",
"= c #008080",
/* pixels */
"................",
"................",
". ...... .......",
"  ..  .  .......",
". . .. . ..   ..",
"    ..    ... ..",
"... .. ...... ..",
"....  ....... ..",
"............   .",
"............. ..",
".....Xo%O+@#$=&*",
".....Xo%O+@#$=&*",
".....Xo%O+@#$=&*",
".....Xo%O+@#$=&*",
".....Xo%O+@#$=&*",
"................"
};
